<svg width="180" height="180" viewBox="0 0 180 180" fill="none" xmlns="http://www.w3.org/2000/svg">
<mask id="path-1-outside-1_477_9" maskUnits="userSpaceOnUse" x="7.17529" y="7.07999" width="166" height="166" fill="black">
<rect fill="white" x="7.17529" y="7.07999" width="166" height="166"/>
<path d="M79.352 62.0685C79.1767 63.0203 78.1313 63.5316 77.2724 63.0857L51.8207 49.8726C50.5727 49.2247 49.2312 50.5662 49.8792 51.8142L63.0959 77.2698C63.5419 78.1287 63.0306 79.1742 62.0788 79.3496L11.2594 88.7116C9.68728 89.0012 9.6873 91.2543 11.2595 91.5439L62.0739 100.904C63.0257 101.08 63.537 102.125 63.0911 102.984L49.8791 128.432C49.2311 129.68 50.5726 131.021 51.8206 130.373L77.2704 117.161C78.1293 116.715 79.1748 117.227 79.3501 118.178L88.7113 168.996C89.0009 170.568 91.254 170.568 91.5436 168.996L100.906 118.175C101.081 117.224 102.127 116.712 102.985 117.158L128.439 130.373C129.687 131.021 131.029 129.68 130.381 128.432L117.17 102.984C116.724 102.125 117.235 101.08 118.187 100.904L168.997 91.544C170.569 91.2544 170.569 89.0013 168.997 88.7117L118.182 79.3505C117.23 79.1752 116.719 78.1297 117.165 77.2708L130.381 51.8141C131.029 50.5661 129.687 49.2246 128.439 49.8725L102.984 63.0876C102.126 63.5335 101.08 63.0222 100.905 62.0705L91.5437 11.2596C91.2541 9.68741 89.001 9.68745 88.7114 11.2596L79.352 62.0685Z"/>
</mask>
<path d="M79.352 62.0685C79.1767 63.0203 78.1313 63.5316 77.2724 63.0857L51.8207 49.8726C50.5727 49.2247 49.2312 50.5662 49.8792 51.8142L63.0959 77.2698C63.5419 78.1287 63.0306 79.1742 62.0788 79.3496L11.2594 88.7116C9.68728 89.0012 9.6873 91.2543 11.2595 91.5439L62.0739 100.904C63.0257 101.08 63.537 102.125 63.0911 102.984L49.8791 128.432C49.2311 129.68 50.5726 131.021 51.8206 130.373L77.2704 117.161C78.1293 116.715 79.1748 117.227 79.3501 118.178L88.7113 168.996C89.0009 170.568 91.254 170.568 91.5436 168.996L100.906 118.175C101.081 117.224 102.127 116.712 102.985 117.158L128.439 130.373C129.687 131.021 131.029 129.68 130.381 128.432L117.17 102.984C116.724 102.125 117.235 101.08 118.187 100.904L168.997 91.544C170.569 91.2544 170.569 89.0013 168.997 88.7117L118.182 79.3505C117.23 79.1752 116.719 78.1297 117.165 77.2708L130.381 51.8141C131.029 50.5661 129.687 49.2246 128.439 49.8725L102.984 63.0876C102.126 63.5335 101.08 63.0222 100.905 62.0705L91.5437 11.2596C91.2541 9.68741 89.001 9.68745 88.7114 11.2596L79.352 62.0685Z" fill="#3F3D56"/>
<path d="M91.5437 11.2596L88.7114 11.7814L91.5437 11.2596ZM88.7114 11.2596L91.5437 11.7813L88.7114 11.2596ZM102.984 63.0876L101.657 60.5316L102.984 63.0876ZM100.905 62.0705L103.737 61.5487L100.905 62.0705ZM128.439 49.8725L129.766 52.4286L128.439 49.8725ZM118.182 79.3505L117.66 82.1829L118.182 79.3505ZM168.997 91.544L168.475 88.7117L168.997 91.544ZM168.997 88.7117L168.475 91.544L168.997 88.7117ZM117.17 102.984L119.726 101.657L117.17 102.984ZM118.187 100.904L118.708 103.737L118.187 100.904ZM128.439 130.373L127.112 132.929L128.439 130.373ZM130.381 128.432L132.937 127.105L130.381 128.432ZM100.906 118.175L103.738 118.697L100.906 118.175ZM102.985 117.158L101.658 119.714L102.985 117.158ZM88.7113 168.996L85.879 169.518L88.7113 168.996ZM91.5436 168.996L94.376 169.518L91.5436 168.996ZM77.2704 117.161L75.9435 114.605L77.2704 117.161ZM79.3501 118.178L76.5178 118.7L79.3501 118.178ZM49.8791 128.432L52.4351 129.759L49.8791 128.432ZM51.8206 130.373L53.1475 132.929L51.8206 130.373ZM62.0739 100.904L62.5957 98.0719L62.0739 100.904ZM63.0911 102.984L65.6471 104.311L63.0911 102.984ZM11.2594 88.7116L10.7377 85.8793L11.2594 88.7116ZM11.2595 91.5439L10.7377 94.3763L11.2595 91.5439ZM63.0959 77.2698L65.652 75.9427L63.0959 77.2698ZM62.0788 79.3496L62.6006 82.1819L62.0788 79.3496ZM77.2724 63.0857L78.5994 60.5296L77.2724 63.0857ZM79.352 62.0685L82.1844 62.5903L79.352 62.0685ZM77.2724 63.0857L75.9454 65.6418L50.4937 52.4287L51.8207 49.8726L53.1477 47.3165L78.5994 60.5296L77.2724 63.0857ZM49.8792 51.8142L52.4352 50.4871L65.652 75.9427L63.0959 77.2698L60.5399 78.5969L47.3232 53.1413L49.8792 51.8142ZM62.0788 79.3496L62.6006 82.1819L11.7812 91.5439L11.2594 88.7116L10.7377 85.8793L61.557 76.5172L62.0788 79.3496ZM11.2595 91.5439L11.7812 88.7116L62.5957 98.0719L62.0739 100.904L61.5522 103.737L10.7377 94.3763L11.2595 91.5439ZM63.0911 102.984L65.6471 104.311L52.4351 129.759L49.8791 128.432L47.323 127.105L60.535 101.657L63.0911 102.984ZM51.8206 130.373L50.4936 127.817L75.9435 114.605L77.2704 117.161L78.5974 119.717L53.1475 132.929L51.8206 130.373ZM79.3501 118.178L82.1824 117.657L91.5436 168.474L88.7113 168.996L85.879 169.518L76.5178 118.7L79.3501 118.178ZM91.5436 168.996L88.7113 168.474L98.0734 117.654L100.906 118.175L103.738 118.697L94.376 169.518L91.5436 168.996ZM102.985 117.158L104.312 114.602L129.766 127.817L128.439 130.373L127.112 132.929L101.658 119.714L102.985 117.158ZM130.381 128.432L127.825 129.759L114.613 104.311L117.17 102.984L119.726 101.657L132.937 127.105L130.381 128.432ZM118.187 100.904L117.665 98.0718L168.475 88.7117L168.997 91.544L169.518 94.3763L118.708 103.737L118.187 100.904ZM168.997 88.7117L168.475 91.544L117.66 82.1829L118.182 79.3505L118.704 76.5182L169.518 85.8793L168.997 88.7117ZM117.165 77.2708L114.609 75.9438L127.825 50.4871L130.381 51.8141L132.937 53.1411L119.721 78.5978L117.165 77.2708ZM128.439 49.8725L129.766 52.4286L104.311 65.6437L102.984 63.0876L101.657 60.5316L127.112 47.3165L128.439 49.8725ZM100.905 62.0705L98.0724 62.5923L88.7114 11.7814L91.5437 11.2596L94.376 10.7378L103.737 61.5487L100.905 62.0705ZM88.7114 11.2596L91.5437 11.7813L82.1844 62.5903L79.352 62.0685L76.5197 61.5468L85.879 10.7379L88.7114 11.2596ZM91.5437 11.2596L88.7114 11.7814C88.7668 12.0822 88.9519 12.4191 89.2681 12.6613C89.5548 12.881 89.8651 12.9605 90.1276 12.9605C90.39 12.9605 90.7003 12.881 90.987 12.6613C91.3032 12.4191 91.4883 12.0821 91.5437 11.7813L88.7114 11.2596L85.879 10.7379C86.7478 6.02143 93.5071 6.02128 94.376 10.7378L91.5437 11.2596ZM102.984 63.0876L104.311 65.6437C101.735 66.9814 98.5984 65.4475 98.0724 62.5923L100.905 62.0705L103.737 61.5487C103.562 60.597 102.516 60.0857 101.657 60.5316L102.984 63.0876ZM130.381 51.8141L127.825 50.4871C127.177 51.7351 128.518 53.0765 129.766 52.4286L128.439 49.8725L127.112 47.3165C130.856 45.3727 134.881 49.3971 132.937 53.1411L130.381 51.8141ZM118.182 79.3505L117.66 82.1829C114.805 81.6569 113.271 78.5205 114.609 75.9438L117.165 77.2708L119.721 78.5978C120.167 77.739 119.655 76.6935 118.704 76.5182L118.182 79.3505ZM168.997 91.544L168.475 88.7117C168.174 88.7671 167.837 88.9522 167.595 89.2684C167.375 89.5551 167.296 89.8654 167.296 90.1278C167.296 90.3903 167.375 90.7006 167.595 90.9873C167.837 91.3034 168.174 91.4886 168.475 91.544L168.997 88.7117L169.518 85.8793C174.235 86.7482 174.235 93.5075 169.518 94.3763L168.997 91.544ZM117.17 102.984L114.613 104.311C113.276 101.734 114.81 98.5978 117.665 98.0718L118.187 100.904L118.708 103.737C119.66 103.561 120.172 102.516 119.726 101.657L117.17 102.984ZM128.439 130.373L129.766 127.817C128.518 127.169 127.177 128.511 127.825 129.759L130.381 128.432L132.937 127.105C134.881 130.849 130.856 134.873 127.112 132.929L128.439 130.373ZM100.906 118.175L98.0734 117.654C98.5994 114.798 101.736 113.265 104.312 114.602L102.985 117.158L101.658 119.714C102.517 120.16 103.563 119.649 103.738 118.697L100.906 118.175ZM88.7113 168.996L91.5436 168.474C91.4882 168.173 91.3031 167.836 90.9869 167.594C90.7002 167.374 90.3899 167.295 90.1275 167.295C89.865 167.295 89.5547 167.374 89.268 167.594C88.9519 167.836 88.7667 168.173 88.7113 168.474L91.5436 168.996L94.376 169.518C93.5071 174.234 86.7478 174.234 85.879 169.518L88.7113 168.996ZM77.2704 117.161L75.9435 114.605C78.5202 113.267 81.6565 114.801 82.1824 117.657L79.3501 118.178L76.5178 118.7C76.6931 119.652 77.7385 120.163 78.5974 119.717L77.2704 117.161ZM49.8791 128.432L52.4351 129.759C53.083 128.511 51.7416 127.169 50.4936 127.817L51.8206 130.373L53.1475 132.929C49.4035 134.873 45.3792 130.849 47.323 127.105L49.8791 128.432ZM62.0739 100.904L62.5957 98.0719C65.4509 98.5978 66.9849 101.734 65.6471 104.311L63.0911 102.984L60.535 101.657C60.0891 102.516 60.6004 103.561 61.5522 103.737L62.0739 100.904ZM11.2594 88.7116L11.7812 91.5439C12.082 91.4885 12.419 91.3034 12.6612 90.9872C12.8809 90.7005 12.9603 90.3902 12.9603 90.1278C12.9603 89.8653 12.8809 89.555 12.6612 89.2683C12.419 88.9522 12.082 88.767 11.7812 88.7116L11.2595 91.5439L10.7377 94.3763C6.02123 93.5075 6.02118 86.7481 10.7377 85.8793L11.2594 88.7116ZM63.0959 77.2698L65.652 75.9427C66.9898 78.5194 65.4558 81.6559 62.6006 82.1819L62.0788 79.3496L61.557 76.5172C60.6053 76.6925 60.094 77.738 60.5399 78.5969L63.0959 77.2698ZM51.8207 49.8726L50.4937 52.4287C51.7417 53.0766 53.0832 51.7351 52.4352 50.4871L49.8792 51.8142L47.3232 53.1413C45.3793 49.3973 49.4036 45.3728 53.1477 47.3165L51.8207 49.8726ZM77.2724 63.0857L78.5994 60.5296C77.7405 60.0837 76.695 60.5951 76.5197 61.5468L79.352 62.0685L82.1844 62.5903C81.6584 65.4455 78.5221 66.9795 75.9454 65.6418L77.2724 63.0857Z" fill="#3F3D56" mask="url(#path-1-outside-1_477_9)"/>
</svg>
