<svg width="125" height="125" viewBox="0 0 125 125" fill="none" xmlns="http://www.w3.org/2000/svg">
<mask id="path-1-outside-1_422_4924" maskUnits="userSpaceOnUse" x="4.39062" y="5.21283" width="117" height="116" fill="black">
<rect fill="white" x="4.39062" y="5.21283" width="117" height="116"/>
<path d="M55.319 43.3164C55.1973 43.9774 54.4713 44.3325 53.8748 44.0228L36.1997 34.8473C35.333 34.3973 34.4015 35.329 34.8515 36.1956L44.0296 53.8718C44.3393 54.4683 43.9842 55.1943 43.3233 55.3161L8.03175 61.8182C6.93998 62.0193 6.94001 63.584 8.03178 63.7851L43.3203 70.2854C43.9813 70.4071 44.3364 71.1332 44.0267 71.7296L34.8515 89.4017C34.4015 90.2684 35.3331 91.2 36.1998 90.75L53.8728 81.5739C54.4693 81.2642 55.1953 81.6193 55.3171 82.2802L61.8184 117.572C62.0195 118.664 63.5841 118.664 63.7853 117.572L70.2874 82.2792C70.4091 81.6183 71.1352 81.2632 71.7316 81.5729L89.4068 90.7501C90.2735 91.2 91.2051 90.2685 90.7551 89.4018L81.5807 71.7296C81.271 71.1331 81.6261 70.4071 82.287 70.2854L117.572 63.7851C118.664 63.584 118.664 62.0194 117.572 61.8182L82.2841 55.3171C81.6232 55.1953 81.2681 54.4693 81.5778 53.8728L90.7552 36.1955C91.2052 35.3289 90.2736 34.3973 89.4069 34.8472L71.7306 44.0238C71.1342 44.3334 70.4082 43.9784 70.2864 43.3175L63.7853 8.03175C63.5842 6.93998 62.0195 6.94001 61.8184 8.03178L55.319 43.3164Z"/>
</mask>
<path d="M55.319 43.3164C55.1973 43.9774 54.4713 44.3325 53.8748 44.0228L36.1997 34.8473C35.333 34.3973 34.4015 35.329 34.8515 36.1956L44.0296 53.8718C44.3393 54.4683 43.9842 55.1943 43.3233 55.3161L8.03175 61.8182C6.93998 62.0193 6.94001 63.584 8.03178 63.7851L43.3203 70.2854C43.9813 70.4071 44.3364 71.1332 44.0267 71.7296L34.8515 89.4017C34.4015 90.2684 35.3331 91.2 36.1998 90.75L53.8728 81.5739C54.4693 81.2642 55.1953 81.6193 55.3171 82.2802L61.8184 117.572C62.0195 118.664 63.5841 118.664 63.7853 117.572L70.2874 82.2792C70.4091 81.6183 71.1352 81.2632 71.7316 81.5729L89.4068 90.7501C90.2735 91.2 91.2051 90.2685 90.7551 89.4018L81.5807 71.7296C81.271 71.1331 81.6261 70.4071 82.287 70.2854L117.572 63.7851C118.664 63.584 118.664 62.0194 117.572 61.8182L82.2841 55.3171C81.6232 55.1953 81.2681 54.4693 81.5778 53.8728L90.7552 36.1955C91.2052 35.3289 90.2736 34.3973 89.4069 34.8472L71.7306 44.0238C71.1342 44.3334 70.4082 43.9784 70.2864 43.3175L63.7853 8.03175C63.5842 6.93998 62.0195 6.94001 61.8184 8.03178L55.319 43.3164Z" fill="#3F3D56"/>
<path d="M63.7853 8.03175L65.7522 7.66936L63.7853 8.03175ZM61.8184 8.03178L59.8515 7.66948L61.8184 8.03178ZM71.7306 44.0238L72.6521 45.7988L71.7306 44.0238ZM70.2864 43.3175L68.3195 43.6798L70.2864 43.3175ZM90.7552 36.1955L88.9802 35.274L90.7552 36.1955ZM89.4069 34.8472L90.3284 36.6223L89.4069 34.8472ZM82.2841 55.3171L82.6465 53.3502L82.2841 55.3171ZM81.5778 53.8728L79.8027 52.9513L81.5778 53.8728ZM117.572 63.7851L117.934 65.752L117.572 63.7851ZM117.572 61.8182L117.21 63.7851L117.572 61.8182ZM81.5807 71.7296L83.3557 70.8081L81.5807 71.7296ZM82.287 70.2854L81.9247 68.3185L82.287 70.2854ZM89.4068 90.7501L88.4852 92.5251L89.4068 90.7501ZM90.7551 89.4018L88.9801 90.3233L90.7551 89.4018ZM70.2874 82.2792L72.2543 82.6416L70.2874 82.2792ZM71.7316 81.5729L70.81 83.3479L71.7316 81.5729ZM61.8184 117.572L59.8515 117.934L61.8184 117.572ZM63.7853 117.572L65.7522 117.934L63.7853 117.572ZM53.8728 81.5739L52.9512 79.7989L53.8728 81.5739ZM55.3171 82.2802L57.284 81.9179L55.3171 82.2802ZM34.8515 89.4017L33.0765 88.4801L34.8515 89.4017ZM36.1998 90.75L35.2782 88.975L36.1998 90.75ZM43.3203 70.2854L42.958 72.2523L43.3203 70.2854ZM44.0267 71.7296L42.2517 70.8081L44.0267 71.7296ZM8.03175 61.8182L7.66937 59.8513L8.03175 61.8182ZM8.03178 63.7851L7.66947 65.752L8.03178 63.7851ZM44.0296 53.8718L42.2546 54.7935L44.0296 53.8718ZM43.3233 55.3161L42.9609 53.3492L43.3233 55.3161ZM36.1997 34.8473L35.2782 36.6223L36.1997 34.8473ZM34.8515 36.1956L33.0765 37.1173L34.8515 36.1956ZM53.8748 44.0228L52.9533 45.7979L53.8748 44.0228ZM55.319 43.3164L53.3521 42.9541L55.319 43.3164ZM53.8748 44.0228L52.9533 45.7979L35.2782 36.6223L36.1997 34.8473L37.1212 33.0722L54.7963 42.2477L53.8748 44.0228ZM34.8515 36.1956L36.6265 35.274L45.8046 52.9502L44.0296 53.8718L42.2546 54.7935L33.0765 37.1173L34.8515 36.1956ZM43.3233 55.3161L43.6856 57.283L8.39413 63.7851L8.03175 61.8182L7.66937 59.8513L42.9609 53.3492L43.3233 55.3161ZM8.03178 63.7851L8.3941 61.8182L43.6826 68.3185L43.3203 70.2854L42.958 72.2523L7.66947 65.752L8.03178 63.7851ZM44.0267 71.7296L45.8017 72.6512L36.6265 90.3233L34.8515 89.4017L33.0765 88.4801L42.2517 70.8081L44.0267 71.7296ZM36.1998 90.75L35.2782 88.975L52.9512 79.7989L53.8728 81.5739L54.7945 83.3489L37.1214 92.525L36.1998 90.75ZM55.3171 82.2802L57.284 81.9179L63.7853 117.209L61.8184 117.572L59.8515 117.934L53.3502 82.6425L55.3171 82.2802ZM63.7853 117.572L61.8184 117.209L68.3205 81.9168L70.2874 82.2792L72.2543 82.6416L65.7522 117.934L63.7853 117.572ZM71.7316 81.5729L72.6532 79.7979L90.3284 88.9751L89.4068 90.7501L88.4852 92.5251L70.81 83.3479L71.7316 81.5729ZM90.7551 89.4018L88.9801 90.3233L79.8056 72.6511L81.5807 71.7296L83.3557 70.8081L92.5302 88.4803L90.7551 89.4018ZM82.287 70.2854L81.9247 68.3185L117.21 61.8182L117.572 63.7851L117.934 65.752L82.6494 72.2523L82.287 70.2854ZM117.572 61.8182L117.21 63.7851L81.9217 57.2839L82.2841 55.3171L82.6465 53.3502L117.934 59.8513L117.572 61.8182ZM81.5778 53.8728L79.8027 52.9513L88.9802 35.274L90.7552 36.1955L92.5302 37.1171L83.3528 54.7944L81.5778 53.8728ZM89.4069 34.8472L90.3284 36.6223L72.6521 45.7988L71.7306 44.0238L70.8091 42.2487L88.4854 33.0722L89.4069 34.8472ZM70.2864 43.3175L68.3195 43.6798L61.8184 8.39413L63.7853 8.03175L65.7522 7.66936L72.2533 42.9551L70.2864 43.3175ZM61.8184 8.03178L63.7853 8.39408L57.2859 43.6787L55.319 43.3164L53.3521 42.9541L59.8515 7.66948L61.8184 8.03178ZM63.7853 8.03175L61.8184 8.39413C61.8569 8.60303 61.9855 8.83701 62.205 9.00522C62.4041 9.15777 62.6196 9.21294 62.8019 9.21294C62.9842 9.21293 63.1996 9.15775 63.3987 9.00519C63.6183 8.83697 63.7468 8.60298 63.7853 8.39408L61.8184 8.03178L59.8515 7.66948C60.4548 4.3941 65.1488 4.39411 65.7522 7.66936L63.7853 8.03175ZM71.7306 44.0238L72.6521 45.7988C70.8628 46.7278 68.6848 45.6626 68.3195 43.6798L70.2864 43.3175L72.2533 42.9551C72.1315 42.2942 71.4055 41.9391 70.8091 42.2487L71.7306 44.0238ZM90.7552 36.1955L88.9802 35.274C88.5302 36.1407 89.4618 37.0722 90.3284 36.6223L89.4069 34.8472L88.4854 33.0722C91.0854 31.7224 93.8801 34.517 92.5302 37.1171L90.7552 36.1955ZM82.2841 55.3171L81.9217 57.2839C79.939 56.9187 78.8737 54.7406 79.8027 52.9513L81.5778 53.8728L83.3528 54.7944C83.6624 54.1979 83.3074 53.4719 82.6465 53.3502L82.2841 55.3171ZM117.572 63.7851L117.21 61.8182C117.001 61.8567 116.767 61.9853 116.598 62.2048C116.446 62.4039 116.391 62.6194 116.391 62.8017C116.391 62.9839 116.446 63.1994 116.598 63.3985C116.767 63.6181 117.001 63.7466 117.21 63.7851L117.572 61.8182L117.934 59.8513C121.21 60.4547 121.21 65.1486 117.934 65.752L117.572 63.7851ZM81.5807 71.7296L79.8056 72.6511C78.8767 70.8617 79.9419 68.6837 81.9247 68.3185L82.287 70.2854L82.6494 72.2523C83.3103 72.1305 83.6654 71.4045 83.3557 70.8081L81.5807 71.7296ZM89.4068 90.7501L90.3284 88.9751C89.4618 88.5251 88.5302 89.4566 88.9801 90.3233L90.7551 89.4018L92.5302 88.4803C93.88 91.0804 91.0852 93.875 88.4852 92.5251L89.4068 90.7501ZM70.2874 82.2792L68.3205 81.9168C68.6858 79.934 70.8639 78.8688 72.6532 79.7979L71.7316 81.5729L70.81 83.3479C71.4065 83.6576 72.1325 83.3025 72.2543 82.6416L70.2874 82.2792ZM61.8184 117.572L63.7853 117.209C63.7468 117.001 63.6182 116.767 63.3987 116.598C63.1996 116.446 62.9841 116.391 62.8018 116.391C62.6195 116.391 62.4041 116.446 62.205 116.598C61.9854 116.767 61.8568 117.001 61.8184 117.209L63.7853 117.572L65.7522 117.934C65.1487 121.209 60.4548 121.209 59.8515 117.934L61.8184 117.572ZM53.8728 81.5739L52.9512 79.7989C54.7406 78.8698 56.9187 79.935 57.284 81.9179L55.3171 82.2802L53.3502 82.6425C53.472 83.3035 54.198 83.6586 54.7945 83.3489L53.8728 81.5739ZM34.8515 89.4017L36.6265 90.3233C37.0765 89.4566 36.1449 88.525 35.2782 88.975L36.1998 90.75L37.1214 92.525C34.5214 93.8749 31.7265 91.0802 33.0765 88.4801L34.8515 89.4017ZM43.3203 70.2854L43.6826 68.3185C45.6655 68.6837 46.7307 70.8618 45.8017 72.6512L44.0267 71.7296L42.2517 70.8081C41.942 71.4045 42.2971 72.1305 42.958 72.2523L43.3203 70.2854ZM8.03175 61.8182L8.39413 63.7851C8.60302 63.7466 8.83701 63.618 9.00522 63.3984C9.15777 63.1993 9.21294 62.9839 9.21294 62.8016C9.21294 62.6193 9.15776 62.4038 9.0052 62.2047C8.83698 61.9852 8.60299 61.8566 8.3941 61.8182L8.03178 63.7851L7.66947 65.752C4.39414 65.1486 4.39408 60.4547 7.66937 59.8513L8.03175 61.8182ZM44.0296 53.8718L45.8046 52.9502C46.7337 54.7395 45.6685 56.9177 43.6856 57.283L43.3233 55.3161L42.9609 53.3492C42.3 53.471 41.9449 54.197 42.2546 54.7935L44.0296 53.8718ZM36.1997 34.8473L35.2782 36.6223C36.1449 37.0723 37.0765 36.1407 36.6265 35.274L34.8515 36.1956L33.0765 37.1173C31.7265 34.5173 34.5211 31.7224 37.1212 33.0722L36.1997 34.8473ZM53.8748 44.0228L54.7963 42.2477C54.1999 41.9381 53.4739 42.2932 53.3521 42.9541L55.319 43.3164L57.2859 43.6787C56.9207 45.6615 54.7427 46.7268 52.9533 45.7979L53.8748 44.0228Z" fill="#3F3D56" mask="url(#path-1-outside-1_422_4924)"/>
</svg>
