<svg width="125" height="125" viewBox="0 0 125 125" fill="none" xmlns="http://www.w3.org/2000/svg">
<mask id="path-1-inside-1_422_4925" fill="white">
<path d="M54.7077 42.1877C54.586 42.8486 53.86 43.2037 53.2635 42.8941L34.5122 33.1599C33.6455 32.71 32.7139 33.6416 33.1639 34.5082L42.9016 53.2626C43.2113 53.859 42.8563 54.5851 42.1953 54.7068L4.81908 61.5919C3.72731 61.793 3.7273 63.3576 4.81908 63.5588L42.1924 70.4437C42.8533 70.5655 43.2084 71.2915 42.8987 71.888L33.164 90.6373C32.714 91.5039 33.6456 92.4355 34.5123 91.9856L53.2625 82.2507C53.859 81.9411 54.585 82.2961 54.7067 82.9571L61.5918 120.332C61.7929 121.423 63.3575 121.423 63.5587 120.332L70.4446 82.9551C70.5664 82.2942 71.2924 81.9391 71.8889 82.2488L90.6413 91.9856C91.508 92.4356 92.4396 91.5041 91.9897 90.6374L82.2564 71.8869C81.9468 71.2905 82.3018 70.5645 82.9627 70.4428L120.332 63.5587C121.423 63.3576 121.423 61.7929 120.332 61.5918L82.9598 54.7068C82.2989 54.5851 81.9439 53.8591 82.2535 53.2626L91.9897 34.5082C92.4396 33.6415 91.508 32.71 90.6414 33.1599L71.8878 42.896C71.2914 43.2056 70.5654 42.8506 70.4436 42.1896L63.5587 4.81883C63.3575 3.72707 61.7929 3.72708 61.5918 4.81884L54.7077 42.1877Z"/>
</mask>
<path d="M54.7077 42.1877C54.586 42.8486 53.86 43.2037 53.2635 42.8941L34.5122 33.1599C33.6455 32.71 32.7139 33.6416 33.1639 34.5082L42.9016 53.2626C43.2113 53.859 42.8563 54.5851 42.1953 54.7068L4.81908 61.5919C3.72731 61.793 3.7273 63.3576 4.81908 63.5588L42.1924 70.4437C42.8533 70.5655 43.2084 71.2915 42.8987 71.888L33.164 90.6373C32.714 91.5039 33.6456 92.4355 34.5123 91.9856L53.2625 82.2507C53.859 81.9411 54.585 82.2961 54.7067 82.9571L61.5918 120.332C61.7929 121.423 63.3575 121.423 63.5587 120.332L70.4446 82.9551C70.5664 82.2942 71.2924 81.9391 71.8889 82.2488L90.6413 91.9856C91.508 92.4356 92.4396 91.5041 91.9897 90.6374L82.2564 71.8869C81.9468 71.2905 82.3018 70.5645 82.9627 70.4428L120.332 63.5587C121.423 63.3576 121.423 61.7929 120.332 61.5918L82.9598 54.7068C82.2989 54.5851 81.9439 53.8591 82.2535 53.2626L91.9897 34.5082C92.4396 33.6415 91.508 32.71 90.6414 33.1599L71.8878 42.896C71.2914 43.2056 70.5654 42.8506 70.4436 42.1896L63.5587 4.81883C63.3575 3.72707 61.7929 3.72708 61.5918 4.81884L54.7077 42.1877Z" fill="white"/>
<path d="M63.5587 4.81883L66.509 4.27528L63.5587 4.81883ZM61.5918 4.81884L64.5421 5.36235L61.5918 4.81884ZM71.8878 42.896L73.2701 45.5585L71.8878 42.896ZM91.9897 34.5082L89.3271 33.1259L91.9897 34.5082ZM90.6414 33.1599L89.2591 30.4973L90.6414 33.1599ZM82.9598 54.7068L83.5034 51.7565L82.9598 54.7068ZM82.2535 53.2626L79.5909 51.8804L82.2535 53.2626ZM120.332 63.5587L120.875 66.5091L120.332 63.5587ZM120.332 61.5918L120.875 58.6415L120.332 61.5918ZM82.2564 71.8869L84.919 70.5048L82.2564 71.8869ZM82.9627 70.4428L83.5063 73.3931L82.9627 70.4428ZM90.6413 91.9856L92.0238 89.3231L90.6413 91.9856ZM70.4446 82.9551L67.4942 82.4116L70.4446 82.9551ZM71.8889 82.2488L73.2713 79.5863L71.8889 82.2488ZM61.5918 120.332L64.5421 119.788L61.5918 120.332ZM53.2625 82.2507L54.6449 84.9133L53.2625 82.2507ZM54.7067 82.9571L51.7564 83.5006L54.7067 82.9571ZM33.164 90.6373L30.5015 89.2549L33.164 90.6373ZM34.5123 91.9856L35.8946 94.6481L34.5123 91.9856ZM42.1924 70.4437L41.6489 73.3941L42.1924 70.4437ZM42.8987 71.888L40.2362 70.5056L42.8987 71.888ZM4.81908 61.5919L4.2756 58.6415L4.81908 61.5919ZM4.81908 63.5588L4.27556 66.5091L4.81908 63.5588ZM42.9016 53.2626L40.2391 54.645L42.9016 53.2626ZM42.1953 54.7068L42.7388 57.6572L42.1953 54.7068ZM34.5122 33.1599L35.8944 30.4973L34.5122 33.1599ZM33.1639 34.5082L30.5014 35.8907L33.1639 34.5082ZM53.2635 42.8941L51.8813 45.5567L53.2635 42.8941ZM54.7077 42.1877L51.7574 41.6442L54.7077 42.1877ZM53.2635 42.8941L51.8813 45.5567L33.13 35.8225L34.5122 33.1599L35.8944 30.4973L54.6457 40.2315L53.2635 42.8941ZM33.1639 34.5082L35.8264 33.1258L45.5641 51.8801L42.9016 53.2626L40.2391 54.645L30.5014 35.8907L33.1639 34.5082ZM42.1953 54.7068L42.7388 57.6572L5.36257 64.5422L4.81908 61.5919L4.2756 58.6415L41.6518 51.7565L42.1953 54.7068ZM4.81908 63.5588L5.36259 60.6084L42.7359 67.4934L42.1924 70.4437L41.6489 73.3941L4.27556 66.5091L4.81908 63.5588ZM42.8987 71.888L45.5613 73.2704L35.8265 92.0196L33.164 90.6373L30.5015 89.2549L40.2362 70.5056L42.8987 71.888ZM34.5123 91.9856L33.1299 89.323L51.8802 79.5882L53.2625 82.2507L54.6449 84.9133L35.8946 94.6481L34.5123 91.9856ZM54.7067 82.9571L57.6571 82.4136L64.5421 119.788L61.5918 120.332L58.6414 120.875L51.7564 83.5006L54.7067 82.9571ZM63.5587 120.332L60.6083 119.788L67.4942 82.4116L70.4446 82.9551L73.3949 83.4987L66.509 120.875L63.5587 120.332ZM71.8889 82.2488L73.2713 79.5863L92.0238 89.3231L90.6413 91.9856L89.2589 94.6481L70.5064 84.9113L71.8889 82.2488ZM91.9897 90.6374L89.3271 92.0196L79.5937 73.2691L82.2564 71.8869L84.919 70.5048L94.6523 89.2552L91.9897 90.6374ZM82.9627 70.4428L82.4192 67.4924L119.788 60.6084L120.332 63.5587L120.875 66.5091L83.5063 73.3931L82.9627 70.4428ZM120.332 61.5918L119.788 64.5422L82.4163 57.6572L82.9598 54.7068L83.5034 51.7565L120.875 58.6415L120.332 61.5918ZM82.2535 53.2626L79.5909 51.8804L89.3271 33.1259L91.9897 34.5082L94.6523 35.8904L84.9161 54.6449L82.2535 53.2626ZM90.6414 33.1599L92.0237 35.8225L73.2701 45.5585L71.8878 42.896L70.5055 40.2334L89.2591 30.4973L90.6414 33.1599ZM70.4436 42.1896L67.4933 42.7332L60.6083 5.36239L63.5587 4.81883L66.509 4.27528L73.394 41.6461L70.4436 42.1896ZM61.5918 4.81884L64.5421 5.36235L57.6581 42.7312L54.7077 42.1877L51.7574 41.6442L58.6414 4.27533L61.5918 4.81884ZM63.5587 4.81883L60.6083 5.36239C61.0106 7.54585 64.1399 7.54594 64.5421 5.36235L61.5918 4.81884L58.6414 4.27533C59.4459 -0.0917914 65.7045 -0.0917061 66.509 4.27528L63.5587 4.81883ZM71.8878 42.896L73.2701 45.5585C70.8843 46.7972 67.9803 45.3769 67.4933 42.7332L70.4436 42.1896L73.394 41.6461C73.1505 40.3243 71.6984 39.6141 70.5055 40.2334L71.8878 42.896ZM91.9897 34.5082L89.3271 33.1259C88.4272 34.8592 90.2903 36.7223 92.0237 35.8225L90.6414 33.1599L89.2591 30.4973C92.7257 28.6976 96.4519 32.4238 94.6523 35.8904L91.9897 34.5082ZM82.9598 54.7068L82.4163 57.6572C79.7727 57.1702 78.3523 54.2662 79.5909 51.8804L82.2535 53.2626L84.9161 54.6449C85.5354 53.452 84.8252 52 83.5034 51.7565L82.9598 54.7068ZM120.332 63.5587L119.788 60.6084C117.605 61.0106 117.605 64.1399 119.788 64.5422L120.332 61.5918L120.875 58.6415C125.242 59.446 125.242 65.7046 120.875 66.5091L120.332 63.5587ZM82.2564 71.8869L79.5937 73.2691C78.3553 70.8833 79.7756 67.9794 82.4192 67.4924L82.9627 70.4428L83.5063 73.3931C84.8281 73.1496 85.5382 71.6977 84.919 70.5048L82.2564 71.8869ZM90.6413 91.9856L92.0238 89.3231C90.2905 88.4231 88.4273 90.2862 89.3271 92.0196L91.9897 90.6374L94.6523 89.2552C96.4519 92.722 92.7255 96.448 89.2589 94.6481L90.6413 91.9856ZM70.4446 82.9551L67.4942 82.4116C67.9813 79.7678 70.8855 78.3476 73.2713 79.5863L71.8889 82.2488L70.5064 84.9113C71.6993 85.5307 73.1514 84.8206 73.3949 83.4987L70.4446 82.9551ZM61.5918 120.332L64.5421 119.788C64.1399 117.605 61.0106 117.605 60.6083 119.788L63.5587 120.332L66.509 120.875C65.7045 125.242 59.4459 125.242 58.6414 120.875L61.5918 120.332ZM53.2625 82.2507L51.8802 79.5882C54.266 78.3495 57.1701 79.7698 57.6571 82.4136L54.7067 82.9571L51.7564 83.5006C51.9999 84.8225 53.452 85.5326 54.6449 84.9133L53.2625 82.2507ZM33.164 90.6373L35.8265 92.0196C36.7265 90.2863 34.8633 88.4231 33.1299 89.323L34.5123 91.9856L35.8946 94.6481C32.4279 96.448 28.7015 92.7216 30.5015 89.2549L33.164 90.6373ZM42.1924 70.4437L42.7359 67.4934C45.3797 67.9804 46.8 70.8845 45.5613 73.2704L42.8987 71.888L40.2362 70.5056C39.6169 71.6985 40.327 73.1506 41.6489 73.3941L42.1924 70.4437ZM4.81908 61.5919L5.36257 64.5422C7.54619 64.14 7.54609 61.0107 5.36259 60.6084L4.81908 63.5588L4.27556 66.5091C-0.0914846 65.7046 -0.091576 59.446 4.2756 58.6415L4.81908 61.5919ZM42.9016 53.2626L45.5641 51.8801C46.8029 54.266 45.3826 57.1702 42.7388 57.6572L42.1953 54.7068L41.6518 51.7565C40.3299 52 39.6198 53.4521 40.2391 54.645L42.9016 53.2626ZM34.5122 33.1599L33.13 35.8225C34.8633 36.7223 36.7264 34.8591 35.8264 33.1258L33.1639 34.5082L30.5014 35.8907C28.7015 32.424 32.4276 28.6976 35.8944 30.4973L34.5122 33.1599ZM53.2635 42.8941L54.6457 40.2315C53.4528 39.6122 52.0009 40.3224 51.7574 41.6442L54.7077 42.1877L57.6581 42.7312C57.1711 45.3749 54.2671 46.7952 51.8813 45.5567L53.2635 42.8941Z" fill="white" mask="url(#path-1-inside-1_422_4925)"/>
</svg>
