<svg width="125" height="125" viewBox="0 0 125 125" fill="none" xmlns="http://www.w3.org/2000/svg">
<mask id="path-1-outside-1_422_4925" maskUnits="userSpaceOnUse" x="0.302734" y="2.3642" width="122" height="122" fill="black">
<rect fill="white" x="0.302734" y="2.3642" width="122" height="122"/>
<path d="M53.8601 42.5518C53.7383 43.2127 53.0123 43.5678 52.4159 43.2582L33.6645 33.524C32.7978 33.0741 31.8663 34.0057 32.3163 34.8723L42.054 53.6267C42.3637 54.2231 42.0086 54.9492 41.3476 55.0709L3.97143 61.956C2.87965 62.1571 2.87964 63.7217 3.97142 63.9229L41.3448 70.8078C42.0057 70.9296 42.3608 71.6556 42.0511 72.2521L32.3163 91.0014C31.8663 91.868 32.7979 92.7996 33.6646 92.3497L52.4149 82.6148C53.0113 82.3052 53.7373 82.6602 53.8591 83.3212L60.7441 120.696C60.9452 121.788 62.5099 121.788 62.711 120.696L69.5969 83.3193C69.7187 82.6583 70.4447 82.3032 71.0412 82.6129L89.7937 92.3497C90.6603 92.7997 91.5919 91.8682 91.142 91.0015L81.4087 72.251C81.0991 71.6546 81.4542 70.9286 82.1151 70.8069L119.484 63.9228C120.576 63.7217 120.576 62.1571 119.484 61.9559L82.1122 55.0709C81.4513 54.9492 81.0962 54.2232 81.4058 53.6267L91.142 34.8723C91.5919 34.0056 90.6604 33.0741 89.7937 33.524L71.0402 43.2601C70.4437 43.5697 69.7177 43.2147 69.596 42.5537L62.711 5.18294C62.5099 4.09118 60.9452 4.09118 60.7441 5.18295L53.8601 42.5518Z"/>
</mask>
<path d="M53.8601 42.5518C53.7383 43.2127 53.0123 43.5678 52.4159 43.2582L33.6645 33.524C32.7978 33.0741 31.8663 34.0057 32.3163 34.8723L42.054 53.6267C42.3637 54.2231 42.0086 54.9492 41.3476 55.0709L3.97143 61.956C2.87965 62.1571 2.87964 63.7217 3.97142 63.9229L41.3448 70.8078C42.0057 70.9296 42.3608 71.6556 42.0511 72.2521L32.3163 91.0014C31.8663 91.868 32.7979 92.7996 33.6646 92.3497L52.4149 82.6148C53.0113 82.3052 53.7373 82.6602 53.8591 83.3212L60.7441 120.696C60.9452 121.788 62.5099 121.788 62.711 120.696L69.5969 83.3193C69.7187 82.6583 70.4447 82.3032 71.0412 82.6129L89.7937 92.3497C90.6603 92.7997 91.5919 91.8682 91.142 91.0015L81.4087 72.251C81.0991 71.6546 81.4542 70.9286 82.1151 70.8069L119.484 63.9228C120.576 63.7217 120.576 62.1571 119.484 61.9559L82.1122 55.0709C81.4513 54.9492 81.0962 54.2232 81.4058 53.6267L91.142 34.8723C91.5919 34.0056 90.6604 33.0741 89.7937 33.524L71.0402 43.2601C70.4437 43.5697 69.7177 43.2147 69.596 42.5537L62.711 5.18294C62.5099 4.09118 60.9452 4.09118 60.7441 5.18295L53.8601 42.5518Z" fill="white"/>
<path d="M62.711 5.18294L64.6779 4.82057L62.711 5.18294ZM60.7441 5.18295L62.711 5.54529L60.7441 5.18295ZM71.0402 43.2601L71.9617 45.0351L71.0402 43.2601ZM91.142 34.8723L89.3669 33.9508L91.142 34.8723ZM89.7937 33.524L88.8722 31.749L89.7937 33.524ZM82.1122 55.0709L82.4745 53.104L82.1122 55.0709ZM81.4058 53.6267L79.6308 52.7052L81.4058 53.6267ZM119.484 63.9228L119.846 65.8897L119.484 63.9228ZM119.484 61.9559L119.846 59.989L119.484 61.9559ZM81.4087 72.251L83.1838 71.3296L81.4087 72.251ZM82.1151 70.8069L82.4774 72.7738L82.1151 70.8069ZM89.7937 92.3497L90.7153 90.5747L89.7937 92.3497ZM69.5969 83.3193L67.63 82.9569L69.5969 83.3193ZM71.0412 82.6129L71.9628 80.8379L71.0412 82.6129ZM60.7441 120.696L62.711 120.333L60.7441 120.696ZM52.4149 82.6148L53.3364 84.3899L52.4149 82.6148ZM53.8591 83.3212L51.8922 83.6835L53.8591 83.3212ZM32.3163 91.0014L30.5413 90.0798L32.3163 91.0014ZM33.6646 92.3497L34.5862 94.1247L33.6646 92.3497ZM41.3448 70.8078L40.9824 72.7747L41.3448 70.8078ZM42.0511 72.2521L40.2761 71.3305L42.0511 72.2521ZM3.97143 61.956L3.60911 59.9891L3.97143 61.956ZM3.97142 63.9229L3.60908 65.8898L3.97142 63.9229ZM42.054 53.6267L40.279 54.5483L42.054 53.6267ZM41.3476 55.0709L41.71 57.0379L41.3476 55.0709ZM33.6645 33.524L34.586 31.7489L33.6645 33.524ZM32.3163 34.8723L30.5413 35.794L32.3163 34.8723ZM52.4159 43.2582L51.4944 45.0333L52.4159 43.2582ZM53.8601 42.5518L51.8932 42.1895L53.8601 42.5518ZM52.4159 43.2582L51.4944 45.0333L32.743 35.2991L33.6645 33.524L34.586 31.7489L53.3373 41.4831L52.4159 43.2582ZM32.3163 34.8723L34.0913 33.9507L43.829 52.7051L42.054 53.6267L40.279 54.5483L30.5413 35.794L32.3163 34.8723ZM41.3476 55.0709L41.71 57.0379L4.33375 63.9229L3.97143 61.956L3.60911 59.9891L40.9853 53.104L41.3476 55.0709ZM3.97142 63.9229L4.33377 61.956L41.7071 68.8409L41.3448 70.8078L40.9824 72.7747L3.60908 65.8898L3.97142 63.9229ZM42.0511 72.2521L43.8261 73.1737L34.0913 91.923L32.3163 91.0014L30.5413 90.0798L40.2761 71.3305L42.0511 72.2521ZM33.6646 92.3497L32.7431 90.5746L51.4933 80.8398L52.4149 82.6148L53.3364 84.3899L34.5862 94.1247L33.6646 92.3497ZM53.8591 83.3212L55.826 82.9588L62.711 120.333L60.7441 120.696L58.7772 121.058L51.8922 83.6835L53.8591 83.3212ZM62.711 120.696L60.7441 120.333L67.63 82.9569L69.5969 83.3193L71.5638 83.6816L64.6779 121.058L62.711 120.696ZM71.0412 82.6129L71.9628 80.8379L90.7153 90.5747L89.7937 92.3497L88.8721 94.1247L70.1196 84.3879L71.0412 82.6129ZM91.142 91.0015L89.367 91.9229L79.6336 73.1725L81.4087 72.251L83.1838 71.3296L92.9171 90.08L91.142 91.0015ZM82.1151 70.8069L81.7527 68.84L119.122 61.9559L119.484 63.9228L119.846 65.8897L82.4774 72.7738L82.1151 70.8069ZM119.484 61.9559L119.122 63.9228L81.7498 57.0378L82.1122 55.0709L82.4745 53.104L119.846 59.989L119.484 61.9559ZM81.4058 53.6267L79.6308 52.7052L89.3669 33.9508L91.142 34.8723L92.9171 35.7938L83.1809 54.5482L81.4058 53.6267ZM89.7937 33.524L90.7152 35.299L71.9617 45.0351L71.0402 43.2601L70.1187 41.485L88.8722 31.749L89.7937 33.524ZM69.596 42.5537L67.6291 42.9161L60.7441 5.54531L62.711 5.18294L64.6779 4.82057L71.5629 42.1914L69.596 42.5537ZM60.7441 5.18295L62.711 5.54529L55.827 42.9142L53.8601 42.5518L51.8932 42.1895L58.7772 4.82061L60.7441 5.18295ZM62.711 5.18294L60.7441 5.54531C60.7826 5.7542 60.9112 5.98818 61.1307 6.15639C61.3298 6.30895 61.5453 6.36412 61.7276 6.36412C61.9098 6.36412 62.1253 6.30894 62.3244 6.15639C62.544 5.98817 62.6725 5.75418 62.711 5.54529L60.7441 5.18295L58.7772 4.82061C59.3806 1.54527 64.0745 1.54532 64.6779 4.82057L62.711 5.18294ZM71.0402 43.2601L71.9617 45.0351C70.1724 45.9641 67.9944 44.8989 67.6291 42.9161L69.596 42.5537L71.5629 42.1914C71.4411 41.5305 70.7151 41.1754 70.1187 41.485L71.0402 43.2601ZM91.142 34.8723L89.3669 33.9508C88.917 34.8174 89.8486 35.749 90.7152 35.299L89.7937 33.524L88.8722 31.749C91.4722 30.3991 94.2668 33.1938 92.9171 35.7938L91.142 34.8723ZM82.1122 55.0709L81.7498 57.0378C79.7671 56.6726 78.7019 54.4946 79.6308 52.7052L81.4058 53.6267L83.1809 54.5482C83.4905 53.9518 83.1355 53.2258 82.4745 53.104L82.1122 55.0709ZM119.484 63.9228L119.122 61.9559C118.913 61.9944 118.679 62.123 118.51 62.3425C118.358 62.5416 118.303 62.7571 118.303 62.9394C118.303 63.1216 118.358 63.3371 118.51 63.5362C118.679 63.7558 118.913 63.8843 119.122 63.9228L119.484 61.9559L119.846 59.989C123.122 60.5924 123.122 65.2863 119.846 65.8897L119.484 63.9228ZM81.4087 72.251L79.6336 73.1725C78.7048 71.3831 79.77 69.2052 81.7527 68.84L82.1151 70.8069L82.4774 72.7738C83.1383 72.652 83.4934 71.9261 83.1838 71.3296L81.4087 72.251ZM89.7937 92.3497L90.7153 90.5747C89.8487 90.1247 88.9171 91.0562 89.367 91.9229L91.142 91.0015L92.9171 90.08C94.2668 92.6801 91.472 95.4747 88.8721 94.1247L89.7937 92.3497ZM69.5969 83.3193L67.63 82.9569C67.9953 80.9741 70.1735 79.9089 71.9628 80.8379L71.0412 82.6129L70.1196 84.3879C70.716 84.6976 71.4421 84.3426 71.5638 83.6816L69.5969 83.3193ZM60.7441 120.696L62.711 120.333C62.6725 120.125 62.544 119.891 62.3244 119.722C62.1253 119.57 61.9099 119.515 61.7276 119.515C61.5453 119.515 61.3298 119.57 61.1307 119.722C60.9112 119.891 60.7826 120.125 60.7441 120.333L62.711 120.696L64.6779 121.058C64.0745 124.333 59.3806 124.333 58.7772 121.058L60.7441 120.696ZM52.4149 82.6148L51.4933 80.8398C53.2827 79.9108 55.4607 80.976 55.826 82.9588L53.8591 83.3212L51.8922 83.6835C52.0139 84.3445 52.74 84.6995 53.3364 84.3899L52.4149 82.6148ZM32.3163 91.0014L34.0913 91.923C34.5413 91.0563 33.6097 90.1247 32.7431 90.5746L33.6646 92.3497L34.5862 94.1247C31.9861 95.4746 29.1914 92.6798 30.5413 90.0798L32.3163 91.0014ZM41.3448 70.8078L41.7071 68.8409C43.6899 69.2062 44.7552 71.3843 43.8261 73.1737L42.0511 72.2521L40.2761 71.3305C39.9664 71.9269 40.3215 72.653 40.9824 72.7747L41.3448 70.8078ZM3.97143 61.956L4.33375 63.9229C4.54265 63.8844 4.77664 63.7558 4.94486 63.5363C5.09742 63.3372 5.15259 63.1217 5.15259 62.9394C5.15259 62.7572 5.09742 62.5417 4.94486 62.3426C4.77665 62.123 4.54266 61.9945 4.33377 61.956L3.97142 63.9229L3.60908 65.8898C0.333788 65.2864 0.333728 60.5924 3.60911 59.9891L3.97143 61.956ZM42.054 53.6267L43.829 52.7051C44.7581 54.4944 43.6928 56.6726 41.71 57.0379L41.3476 55.0709L40.9853 53.104C40.3244 53.2258 39.9693 53.9518 40.279 54.5483L42.054 53.6267ZM33.6645 33.524L32.743 35.2991C33.6097 35.749 34.5413 34.8174 34.0913 33.9507L32.3163 34.8723L30.5413 35.794C29.1913 33.194 31.9859 30.3992 34.586 31.7489L33.6645 33.524ZM52.4159 43.2582L53.3373 41.4831C52.7409 41.1735 52.0149 41.5286 51.8932 42.1895L53.8601 42.5518L55.827 42.9142C55.4617 44.8969 53.2838 45.9621 51.4944 45.0333L52.4159 43.2582Z" fill="#3F3D56" mask="url(#path-1-outside-1_422_4925)"/>
<mask id="path-3-inside-2_422_4925" fill="white">
<path d="M61.5543 59.5563C64.7193 56.3913 69.8514 56.3906 73.0165 59.5557C73.4686 60.0078 73.8558 60.5003 74.1785 61.0215C74.7086 61.8777 75.6723 62.4424 76.672 62.321C86.5137 61.1262 99.5845 66.4739 105.44 72.3298C113.305 80.195 112.716 93.5356 104.126 102.126C95.5349 110.717 82.195 111.305 74.3298 103.44C68.4744 97.5851 63.1264 84.516 64.3199 74.6747C64.4411 73.675 63.8764 72.7113 63.0204 72.1809C62.4992 71.8578 62.0066 71.4702 61.5543 71.0178C58.3893 67.8529 58.3895 62.7214 61.5543 59.5563Z"/>
</mask>
<path d="M61.5543 59.5563C64.7193 56.3913 69.8514 56.3906 73.0165 59.5557C73.4686 60.0078 73.8558 60.5003 74.1785 61.0215C74.7086 61.8777 75.6723 62.4424 76.672 62.321C86.5137 61.1262 99.5845 66.4739 105.44 72.3298C113.305 80.195 112.716 93.5356 104.126 102.126C95.5349 110.717 82.195 111.305 74.3298 103.44C68.4744 97.5851 63.1264 84.516 64.3199 74.6747C64.4411 73.675 63.8764 72.7113 63.0204 72.1809C62.4992 71.8578 62.0066 71.4702 61.5543 71.0178C58.3893 67.8529 58.3895 62.7214 61.5543 59.5563Z" fill="white"/>
<path d="M61.5543 59.5563L60.1401 58.1421L60.14 58.1422L61.5543 59.5563ZM73.0165 59.5557L74.4307 58.1415L74.4307 58.1414L73.0165 59.5557ZM105.44 72.3298L106.855 70.9157L106.855 70.9156L105.44 72.3298ZM104.126 102.126L105.54 103.541L105.54 103.541L104.126 102.126ZM74.3298 103.44L72.9156 104.855L72.9157 104.855L74.3298 103.44ZM61.5543 71.0178L60.1401 72.432L60.1401 72.4321L61.5543 71.0178ZM64.3199 74.6747L62.3344 74.4339L64.3199 74.6747ZM63.0204 72.1809L61.9669 73.8809L63.0204 72.1809ZM74.1785 61.0215L75.879 59.9687L74.1785 61.0215ZM76.672 62.321L76.9131 64.3064L76.672 62.321ZM61.5543 59.5563L62.9685 60.9706C65.3527 58.5863 69.2185 58.5861 71.6022 60.9699L73.0165 59.5557L74.4307 58.1414C70.4843 54.1951 64.0859 54.1963 60.1401 58.1421L61.5543 59.5563ZM73.0165 59.5557L71.6022 60.9698C71.9443 61.312 72.2358 61.6829 72.478 62.0742L74.1785 61.0215L75.879 59.9687C75.4759 59.3177 74.9929 58.7037 74.4307 58.1415L73.0165 59.5557ZM76.672 62.321L76.9131 64.3064C81.4186 63.7594 86.8159 64.7069 91.8618 66.5589C96.9111 68.4122 101.363 71.0808 104.026 73.7441L105.44 72.3298L106.855 70.9156C103.662 67.723 98.6505 64.7897 93.24 62.8039C87.8261 60.8168 81.7671 59.6878 76.431 60.3356L76.672 62.321ZM105.44 72.3298L104.026 73.744C110.995 80.7132 110.641 92.7823 102.711 100.712L104.126 102.126L105.54 103.541C114.792 94.2889 115.616 79.6769 106.855 70.9157L105.44 72.3298ZM104.126 102.126L102.712 100.712C94.7817 108.642 82.7132 108.995 75.744 102.026L74.3298 103.44L72.9157 104.855C81.6767 113.615 96.2882 112.792 105.54 103.541L104.126 102.126ZM74.3298 103.44L75.7441 102.026C73.081 99.3632 70.4125 94.9119 68.559 89.8631C66.7068 84.8177 65.759 79.4209 66.3054 74.9155L64.3199 74.6747L62.3344 74.4339C61.6874 79.7698 62.8168 85.8282 64.8041 91.2415C66.7901 96.6514 69.7233 101.662 72.9156 104.855L74.3298 103.44ZM63.0204 72.1809L64.074 70.4809C63.6826 70.2383 63.3112 69.9463 62.9685 69.6036L61.5543 71.0178L60.1401 72.4321C60.7021 72.994 61.3158 73.4774 61.9669 73.8809L63.0204 72.1809ZM61.5543 71.0178L62.9685 69.6036C60.5847 67.2198 60.5847 63.3546 62.9686 60.9705L61.5543 59.5563L60.14 58.1422C56.1944 62.0882 56.194 68.486 60.1401 72.432L61.5543 71.0178ZM64.3199 74.6747L66.3054 74.9155C66.5375 73.0009 65.4614 71.3407 64.074 70.4809L63.0204 72.1809L61.9669 73.8809C62.1076 73.9681 62.2145 74.0867 62.2762 74.201C62.3351 74.3103 62.34 74.3884 62.3344 74.4339L64.3199 74.6747ZM74.1785 61.0215L72.478 62.0742C73.3377 63.4628 74.9984 64.5389 76.9131 64.3064L76.672 62.321L76.431 60.3356C76.3854 60.3411 76.3075 60.3363 76.1984 60.2774C76.0843 60.2159 75.9659 60.1091 75.879 59.9687L74.1785 61.0215Z" fill="#3F3D56" mask="url(#path-3-inside-2_422_4925)"/>
<path d="M85.2969 83.2971L62.3735 60.3738" stroke="#3F3D56" stroke-width="2" stroke-linejoin="round"/>
<circle cx="88.5722" cy="86.5714" r="6.78902" transform="rotate(-45 88.5722 86.5714)" fill="white" stroke="#3F3D56" stroke-width="2" stroke-linejoin="round"/>
<mask id="path-7-inside-3_422_4925" fill="white">
<rect x="88.5718" y="107.856" width="30.1029" height="11.578" rx="1" transform="rotate(-45 88.5718 107.856)"/>
</mask>
<rect x="88.5718" y="107.856" width="30.1029" height="11.578" rx="1" transform="rotate(-45 88.5718 107.856)" fill="white" stroke="#3F3D56" stroke-width="4" stroke-linejoin="round" mask="url(#path-7-inside-3_422_4925)"/>
</svg>
